<svg width="414" height="60" viewBox="0 0 414 60" fill="none" xmlns="http://www.w3.org/2000/svg">
<path d="M33.3727 0C42.9386 3.46463e-05 49.6581 4.08578 53.942 9.51953C58.1736 14.887 59.9996 21.5216 59.9996 26.7363C59.9996 31.1667 59.0832 34.4244 57.4254 36.9424C55.7777 39.4448 53.5201 41.0246 51.2223 42.3086C48.7057 43.7148 46.2083 44.7831 43.901 46.2305C43.6646 46.399 43.4217 46.5583 43.1705 46.7061C41.6609 47.7301 40.2448 48.9575 38.9713 50.5996C38.9664 50.908 38.9091 51.1907 38.7995 51.4492C38.8979 51.5716 39.0208 51.7169 39.1754 51.8867C39.6741 52.4341 40.325 53.0707 41.1705 53.9141C41.9979 54.7393 42.9651 55.7176 44.0192 56.8799C44.7115 57.6433 44.6537 58.8243 43.8903 59.5166C43.1746 60.1649 42.093 60.1549 41.3903 59.5225L41.2545 59.3877L40.526 58.5977C39.8121 57.8378 39.1443 57.1646 38.5348 56.5566C37.7407 55.7645 36.9938 55.0339 36.4166 54.4004C35.8641 53.7939 35.2809 53.0827 34.9694 52.2979C34.865 52.0348 34.7924 51.7621 34.7545 51.4854C34.6287 51.2049 34.563 50.8956 34.5621 50.5557V48.0195C32.9082 47.6519 31.4563 47.0087 30.2067 46.0898C28.957 45.171 27.9463 43.8844 27.1745 42.2305C26.9172 41.7159 26.9084 41.1735 27.1481 40.6045C27.3877 40.0357 27.8189 39.622 28.442 39.3633C28.9566 39.1427 29.4903 39.1519 30.0416 39.3916C30.5929 39.6313 31.0152 40.0264 31.3092 40.5762C31.9341 41.6789 32.7246 42.5155 33.6803 43.0859C34.6359 43.6563 35.8121 43.9409 37.2086 43.9395C38.7157 43.9395 39.9928 43.5992 41.0397 42.9199C42.0865 42.2407 42.6114 41.184 42.6129 39.749C42.6129 38.4625 42.2077 37.4422 41.3991 36.6895C40.5902 35.9368 38.7158 35.0819 35.776 34.125C32.6149 33.1325 30.4454 31.947 29.2692 30.5693C28.0931 29.1917 27.5055 27.5096 27.5055 25.5234C27.5056 23.1343 28.2772 21.2783 29.8209 19.9551C31.3646 18.6319 32.945 17.8782 34.5621 17.6943V15.2686C34.5621 14.6437 34.7744 14.1188 35.1979 13.6953C35.6213 13.2721 36.1449 13.061 36.7682 13.0625C37.3915 13.064 37.9156 13.2763 38.3405 13.6982C38.7653 14.1202 38.9762 14.6437 38.9733 15.2686V17.6943C40.3701 17.9149 41.5837 18.3651 42.6129 19.0459C43.6421 19.7266 44.4875 20.5628 45.1491 21.5537C45.4798 22.0315 45.5437 22.5643 45.3424 23.1523C45.141 23.7405 44.7275 24.1636 44.1012 24.4209C43.5867 24.6414 43.0539 24.6506 42.5026 24.4492C41.9512 24.2478 41.4365 23.8891 40.9586 23.373C40.4809 22.8571 39.9198 22.4629 39.276 22.1895C38.6321 21.916 37.8327 21.7774 36.8786 21.7744C35.2613 21.7744 34.0296 22.1331 33.1842 22.8506C32.3388 23.568 31.9157 24.459 31.9157 25.5234C31.9157 26.7364 32.4673 27.6922 33.57 28.3906C34.6727 29.089 36.5843 29.8248 39.3043 30.5967C41.8405 31.3318 43.7614 32.499 45.067 34.0986C46.3727 35.6983 47.0246 37.545 47.0231 39.6387C47.0231 39.8624 47.0149 40.0814 47.0036 40.2959C47.8531 39.8703 48.661 39.4648 49.402 39.0508C51.4875 37.8854 53.1415 36.6616 54.3082 34.8896C55.4647 33.1331 56.2672 30.6432 56.2672 26.7363C56.2672 22.2818 54.6772 16.4811 51.0114 11.8311C47.3975 7.24721 41.7362 3.73246 33.3727 3.73242C27.6587 3.73246 23.3914 5.00848 20.3639 7.3457C17.36 9.66497 15.3495 13.2039 14.4743 18.1963C14.3728 18.7746 14.0055 19.2721 13.4821 19.5381C10.1976 21.2065 7.68784 22.5336 5.94106 23.5244C5.59274 23.722 5.27827 23.9052 4.99672 24.0723C5.17541 24.1757 5.36043 24.285 5.54555 24.4004C6.33765 24.8942 7.33861 25.6086 8.01039 26.6084C8.75944 27.7235 9.05691 29.1419 8.44399 30.6973C8.04767 31.7028 7.47324 32.8712 6.93422 33.9961C6.37722 35.1586 5.82914 36.3306 5.40297 37.4736C4.97336 38.626 4.70572 39.6498 4.65297 40.5127C4.60137 41.3583 4.76153 41.9244 5.04945 42.3262C5.35503 42.7523 5.83142 43.0815 6.63149 43.3447C7.46822 43.62 8.48177 43.7688 9.7516 43.9355C12.1045 44.2445 15.3724 44.582 17.9381 46.6182L18.2321 46.8574C21.0429 49.1984 23.1111 52.5303 24.5192 56.71L24.8004 57.5869L24.8473 57.7715C25.0319 58.6991 24.4877 59.6345 23.5641 59.918C22.5789 60.2199 21.5343 59.6658 21.2321 58.6807C19.9289 54.4318 18.0204 51.4496 15.6178 49.542C14.0128 48.2682 11.8813 47.9801 9.26625 47.6367C8.05239 47.4773 6.68885 47.2934 5.46449 46.8906C4.20379 46.4758 2.93343 45.7811 2.01528 44.5C1.07953 43.1942 0.842411 41.693 0.928361 40.2852C1.01333 38.8948 1.41871 37.4768 1.9059 36.1699C2.39676 34.8534 3.01054 33.5463 3.56801 32.3828C4.14343 31.1819 4.63759 30.1749 4.97133 29.3281C5.08819 29.0314 5.05039 28.8955 4.91274 28.6904C4.69743 28.3699 4.25786 27.9966 3.57094 27.5684C3.24538 27.3654 2.90848 27.175 2.5602 26.9814C2.23257 26.7993 1.858 26.594 1.5436 26.3965C1.27531 26.2279 0.8178 25.9275 0.485978 25.499C0.304635 25.2648 0.0573342 24.8611 0.00843916 24.3115C-0.0454779 23.7041 0.165106 23.1772 0.464494 22.7949C0.815958 22.3462 1.39654 21.9356 1.88051 21.6152C2.44618 21.2407 3.19124 20.7934 4.09926 20.2783C5.76718 19.3322 8.06357 18.1151 10.9752 16.6279C12.0604 11.3872 14.3906 7.24177 18.0836 4.39062C21.968 1.39208 27.1341 3.45442e-05 33.3727 0Z" fill="white"/>
<path d="M185.168 17.1003C188.295 17.1003 191.171 17.6552 193.794 18.765C195.985 19.6333 197.838 20.8573 199.351 22.4372C199.924 23.0355 199.864 23.9738 199.282 24.563L194.978 28.917C194.3 29.6021 193.19 29.5469 192.458 28.9205C191.632 28.2128 190.74 27.6775 189.784 27.3148C188.372 26.7599 186.984 26.4825 185.622 26.4824C184.311 26.4824 183.327 26.6841 182.671 27.0876C182.015 27.4407 181.688 27.9707 181.688 28.6769C181.688 29.4335 182.116 30.0393 182.973 30.4932C183.831 30.9472 184.941 31.3505 186.303 31.7036C187.665 32.0567 189.103 32.4858 190.616 32.9903C192.129 33.4947 193.567 34.1755 194.929 35.033C196.291 35.8905 197.401 37.0505 198.258 38.5133C199.116 39.9256 199.545 41.7922 199.545 44.1125C199.545 47.694 198.183 50.5444 195.459 52.6631C192.785 54.7817 189.153 55.8407 184.563 55.8407C182.394 55.8407 180.25 55.5633 178.131 55.0084C176.063 54.4535 174.121 53.6719 172.305 52.6631C171.033 51.8999 169.892 51.0581 168.882 50.1378C168.232 49.5455 168.252 48.5382 168.871 47.9126L173.138 43.5961C173.797 42.9295 174.873 42.9574 175.593 43.5577C176.512 44.3237 177.535 44.9626 178.661 45.4746C180.325 46.1808 182.141 46.534 184.108 46.5341C185.47 46.5341 186.504 46.3323 187.211 45.9289C187.967 45.5254 188.346 44.9704 188.346 44.2642C188.346 43.3563 187.892 42.6755 186.984 42.2215C186.127 41.7171 185.017 41.2879 183.655 40.9348C182.293 40.5313 180.855 40.1022 179.342 39.6482C177.828 39.1942 176.391 38.5642 175.029 37.7572C173.667 36.9501 172.557 35.8401 171.7 34.4278C170.842 32.9649 170.413 31.1235 170.413 28.904C170.413 26.5332 171.019 24.4901 172.229 22.775C173.44 21.0096 175.155 19.6222 177.374 18.6133C179.594 17.6045 182.192 17.1003 185.168 17.1003ZM101.146 0.680642C105.383 0.680666 109.142 1.36145 112.42 2.72337C115.208 3.86362 117.694 5.35756 119.881 7.20497C120.582 7.7976 120.592 8.85707 119.946 9.50942L114.38 15.1288C113.724 15.7918 112.652 15.7676 111.939 15.1659C110.795 14.201 109.493 13.4079 108.031 12.7869C106.064 11.9295 103.769 11.5011 101.146 11.5011C98.826 11.5011 96.682 11.9044 94.7148 12.7115C92.7979 13.4681 91.1331 14.578 89.7207 16.0408C88.3587 17.5037 87.2739 19.2693 86.4668 21.3375C85.7102 23.4056 85.3319 25.6755 85.3319 28.1471C85.3319 30.6693 85.7102 32.9648 86.4668 35.033C87.2739 37.1012 88.3588 38.8668 89.7207 40.3296C91.1331 41.7924 92.798 42.9274 94.7148 43.7345C96.682 44.5415 98.826 44.9448 101.146 44.9448C103.87 44.9448 106.241 44.5165 108.259 43.659C109.74 43.0293 111.072 42.2227 112.255 41.2394C112.961 40.6519 114.012 40.6351 114.662 41.2848L120.289 46.9125C120.95 47.5731 120.93 48.6545 120.207 49.246C117.952 51.0911 115.432 52.5834 112.647 53.7226C109.369 55.0845 105.56 55.7653 101.222 55.7653C97.2368 55.7653 93.5289 55.0845 90.0988 53.7226C86.7191 52.3101 83.7428 50.3429 81.1702 47.8207C78.648 45.2985 76.6807 42.3723 75.2683 39.043C73.856 35.6633 73.1501 32.0312 73.1501 28.1471C73.1502 24.2632 73.856 20.6566 75.2683 17.3275C76.6807 13.9478 78.648 11.0215 81.1702 8.54976C83.6923 6.07803 86.6436 4.1616 90.0233 2.79962C93.4535 1.3872 97.1613 0.680642 101.146 0.680642ZM141.53 17.4029C144.001 17.4029 146.221 17.882 148.189 18.8405C148.832 19.1463 149.437 19.4908 150.004 19.8739C150.671 20.3249 151.669 19.8797 151.669 19.0746C151.669 18.5694 152.078 18.1598 152.584 18.1598H161.375C162.283 18.1598 163.019 18.8958 163.019 19.8036V53.2891C163.019 54.197 162.283 54.9329 161.375 54.9329H152.567C152.071 54.9329 151.669 54.5309 151.669 54.0351C151.669 53.2472 150.695 52.8092 150.04 53.2475C149.488 53.6172 148.896 53.9522 148.264 54.2523C146.246 55.2107 144.001 55.6898 141.53 55.6898C138.15 55.6898 135.123 54.8575 132.449 53.1928C129.826 51.5282 127.733 49.2576 126.17 46.3824C124.656 43.5072 123.9 40.2283 123.9 36.546C123.9 32.8637 124.656 29.5848 126.17 26.7096C127.733 23.8344 129.827 21.5646 132.449 19.8999C135.123 18.2353 138.15 17.4029 141.53 17.4029ZM413.957 53.2891C413.957 54.197 413.221 54.9329 412.313 54.9329H403.466C402.991 54.9329 402.607 54.5483 402.607 54.0739C402.607 53.3438 401.737 52.928 401.125 53.3264C400.659 53.6299 400.169 53.9132 399.656 54.1761C397.588 55.1849 395.292 55.6898 392.77 55.6898C389.29 55.6898 386.187 54.8574 383.464 53.1928C380.79 51.5282 378.671 49.2577 377.107 46.3824C375.594 43.5072 374.837 40.2282 374.837 36.546C374.837 32.8637 375.594 29.5848 377.107 26.7096C378.671 23.8343 380.79 21.5646 383.464 19.8999C386.187 18.2353 389.29 17.4029 392.77 17.4029C395.292 17.4029 397.562 17.8821 399.58 18.8405C400.788 19.4003 402.379 18.5921 402.379 17.2607V1.64381C402.379 0.735961 403.115 0 404.023 0H412.313C413.221 0 413.957 0.735961 413.957 1.64381V53.2891ZM217.402 17.9445C217.402 19.0908 218.813 19.7592 219.824 19.2185C221.993 18.008 224.49 17.4029 227.315 17.4029C230.19 17.403 232.712 18.0079 234.881 19.2185C237.05 20.3787 238.714 22.0186 239.875 24.1371C241.085 26.2053 241.691 28.6266 241.691 31.401V53.2891C241.691 54.197 240.955 54.9329 240.047 54.9329H231.758C230.85 54.9329 230.114 54.197 230.114 53.2891V33.9735C230.114 32.0568 229.509 30.5185 228.298 29.3583C227.138 28.1477 225.65 27.5419 223.834 27.5419C222.573 27.5419 221.463 27.8194 220.504 28.3743C219.546 28.8787 218.789 29.6353 218.234 30.6441C217.68 31.6026 217.402 32.7124 217.402 33.9735V53.2891C217.402 54.197 216.666 54.9329 215.758 54.9329H207.469C206.562 54.9329 205.826 54.197 205.826 53.2891V1.64381C205.826 0.735958 206.562 0 207.469 0H215.758C216.666 0 217.402 0.735961 217.402 1.64381V17.9445ZM276.149 28.7522C276.796 29.7608 278.271 29.7596 278.917 28.75L295.856 2.27095C296.159 1.7987 296.68 1.51298 297.241 1.51298H303.248C304.156 1.51298 304.892 2.24894 304.892 3.1568V53.2891C304.892 54.197 304.156 54.9329 303.248 54.9329H294.656C293.748 54.9329 293.012 54.197 293.012 53.2891V30.9999C293.012 29.3587 290.871 28.7308 289.985 30.112L281.921 42.676C281.618 43.147 281.097 43.4319 280.537 43.4319H274.467C273.906 43.4319 273.384 43.1455 273.082 42.6725L265.018 30.0405C264.134 28.6553 261.989 29.2816 261.989 30.9249V53.2891C261.989 54.197 261.253 54.9329 260.345 54.9329H251.829C250.921 54.9329 250.185 54.197 250.185 53.2891V3.1568C250.185 2.24894 250.921 1.51298 251.829 1.51298H257.762C258.322 1.51298 258.843 1.79774 259.146 2.2687L276.149 28.7522ZM325.654 53.2891C325.654 54.197 324.918 54.9329 324.01 54.9329H315.721C314.813 54.9329 314.077 54.197 314.077 53.2891V19.8036C314.077 18.8958 314.813 18.1598 315.721 18.1598H324.01C324.918 18.1598 325.654 18.8958 325.654 19.8036V53.2891ZM355.674 17.4029C358.397 17.4029 360.794 18.0587 362.862 19.3702C364.981 20.6313 366.645 22.3211 367.856 24.4397C369.067 26.5583 369.672 28.8788 369.672 31.401V53.2891C369.672 54.197 368.936 54.9329 368.029 54.9329H359.739C358.831 54.9329 358.095 54.197 358.095 53.2891V33.9735C358.095 32.0568 357.49 30.5185 356.28 29.3583C355.119 28.1477 353.631 27.542 351.815 27.5419C350.554 27.5419 349.444 27.8194 348.486 28.3743C347.528 28.8787 346.771 29.6354 346.216 30.6441C345.661 31.6026 345.384 32.7124 345.384 33.9735V53.2891C345.384 54.197 344.648 54.9329 343.74 54.9329H335.45C334.542 54.9329 333.806 54.197 333.806 53.2891V19.8036C333.806 18.8958 334.542 18.1598 335.45 18.1598H344.492C344.985 18.1598 345.384 18.5588 345.384 19.0511C345.384 19.8207 346.319 20.255 346.966 19.8381C347.308 19.6177 347.663 19.4111 348.032 19.2185C350.301 18.0079 352.849 17.403 355.674 17.4029ZM143.951 27.8445C142.337 27.8445 140.899 28.2228 139.638 28.9795C138.427 29.6856 137.444 30.6948 136.687 32.0062C135.981 33.3177 135.628 34.831 135.628 36.546C135.628 38.2106 135.981 39.6987 136.687 41.0103C137.394 42.3218 138.377 43.3559 139.638 44.1125C140.899 44.8691 142.311 45.2474 143.875 45.2474C146.347 45.2474 148.34 44.4409 149.853 42.8267C151.366 41.162 152.123 39.0681 152.123 36.546C152.123 34.831 151.77 33.3177 151.064 32.0062C150.408 30.6947 149.45 29.6857 148.189 28.9795C146.978 28.2229 145.565 27.8446 143.951 27.8445ZM394.889 27.8445C393.275 27.8445 391.837 28.2228 390.576 28.9795C389.365 29.736 388.382 30.7703 387.625 32.0817C386.919 33.3932 386.566 34.8814 386.566 36.546C386.566 38.2106 386.919 39.6988 387.625 41.0103C388.331 42.3217 389.315 43.3559 390.576 44.1125C391.837 44.8691 393.249 45.2474 394.813 45.2474C396.478 45.2474 397.916 44.895 399.126 44.1888C400.337 43.4322 401.295 42.3979 402.001 41.0865C402.708 39.775 403.061 38.2611 403.061 36.546C403.061 34.831 402.708 33.3427 402.001 32.0817C401.346 30.7703 400.387 29.7361 399.126 28.9795C397.916 28.2229 396.503 27.8446 394.889 27.8445ZM319.904 0.378045C321.72 0.378069 323.208 0.983803 324.368 2.19443C325.528 3.40503 326.108 4.91835 326.108 6.73418C326.108 8.49959 325.528 10.0129 324.368 11.2739C323.208 12.4846 321.72 13.0895 319.904 13.0895C318.088 13.0895 316.575 12.4845 315.364 11.2739C314.204 10.0129 313.623 8.49962 313.623 6.73418C313.623 4.91824 314.204 3.40507 315.364 2.19443C316.575 0.983779 318.088 0.378045 319.904 0.378045Z" fill="white"/>
</svg>
